<?xml version="1.0" encoding="UTF-8" standalone="no"?>
<svg
   width="553.33"
   height="816"
   version="1.0"
   viewBox="0 0 415 612"
   id="svg4"
   sodipodi:docname="alpinhead3.svg"
   inkscape:version="1.2.2 (1:1.2.2+202212051551+b0a8486541)"
   xmlns:inkscape="http://www.inkscape.org/namespaces/inkscape"
   xmlns:sodipodi="http://sodipodi.sourceforge.net/DTD/sodipodi-0.dtd"
   xmlns="http://www.w3.org/2000/svg"
   xmlns:svg="http://www.w3.org/2000/svg">
  <defs
     id="defs8" />
  <sodipodi:namedview
     id="namedview6"
     pagecolor="#ffffff"
     bordercolor="#000000"
     borderopacity="0.25"
     inkscape:showpageshadow="2"
     inkscape:pageopacity="0.0"
     inkscape:pagecheckerboard="0"
     inkscape:deskcolor="#d1d1d1"
     showgrid="false"
     inkscape:zoom="0.58333333"
     inkscape:cx="276"
     inkscape:cy="408.85714"
     inkscape:window-width="1296"
     inkscape:window-height="704"
     inkscape:window-x="0"
     inkscape:window-y="0"
     inkscape:window-maximized="1"
     inkscape:current-layer="svg4" />
  <path
     d="M222.2 169c-.1 93.2-.6 170-1 170.6-.4.6-3.8 1.6-7.7 2.3-3.8.7-9.2 1.7-11.9 2.1-2.7.5-5.2 1.3-5.5 1.8-2.2 3.3-8.4 4-15.4 1.6-4.3-1.5-4.8-1.4-8.9.5-2.4 1.1-5.5 3-6.9 4.2l-2.6 2.1-6-3c-5.5-2.8-7.2-3.1-26.4-4.6-11.3-.9-24.8-1.6-29.9-1.6h-9.3l-3.9 4.1-3.9 4-5.7-.7c-7.4-.9-11.3-4.6-13.7-12.9-1.7-5.8-1.7-6.7.1-22.2.4-2.9.4-6.3 0-7.7-.8-3.1-4.4-6.6-6.8-6.6-1 0-5.4 3.5-9.7 7.7-9.8 9.6-10.3 11.3-10 30.2.3 13 .2 13.8-2.1 16.9-1.8 2.5-2.4 4.8-2.8 11-.4 7.2-.2 8 2.1 10.7 2.8 3.3 5 3.5 18.7 1.7 4.7-.7 11.3-1.2 14.6-1.2 5.4 0 6.9.4 11.3 3.4 3 2.1 7.4 3.9 10.8 4.6 7.9 1.6 12.3 3.2 12.3 4.5 0 .6-1.5 1.8-3.3 2.7-1.8.9-8.5 5.5-14.9 10.3-10.6 7.9-11.6 9-12.2 12.5-.6 4-1.7 5.6-9.3 13.5-5.2 5.5-9.9 6.9-17.3 5.5-3-.6-6.1-.8-7.1-.5-1 .4-4-1-7.5-3.5-9.5-6.6-16-7.3-19.8-1.8-3.5 5-1 12.9 6.9 21.6 5.3 5.9 12.2 9.8 23.1 13 7.8 2.4 11.7 4.9 13.9 9.2 2.1 4 8.9 7 15.9 7 5.3 0 6.1-.3 9.2-3.4 2.8-2.8 3.4-4.2 3.4-7.6v-4.3l4.8.6c4 .5 6 0 13.7-3.5 20-8.9 25.6-11.9 40.4-21.3 8.4-5.4 18-11.1 21.3-12.7 6-2.9 6.5-2.9 15.6-.6 4 1 4.7.8 14.5-4 5.6-2.8 13.5-6.1 17.4-7.4 4-1.3 7.3-2.6 7.3-2.9 0-.3-2-.5-4.5-.4-2.5.2-4.5-.1-4.5-.6s3.6-.9 7.9-.9h7.9l4.2-4.7 4.1-4.7 3.7 1.3c2 .8 10.9 4.5 19.8 8.2 8.8 3.8 16.5 6.9 17.2 6.9.6 0 2.3 1.5 3.7 3.4 1.4 1.9 4.6 4.4 7 5.5 3.7 1.8 4.4 2.5 4.3 4.8-.1 1.6 0 3.4.3 4.1.2.9-1.3 2-4.1 3.2-4.5 1.7-4.5 1.8-5.1 7.6-.4 3.3-.7 11.4-.8 18l-.1 12.2 6.8 1.2c7.1 1.3 10.2 3.2 10.2 6.1 0 2.6 5.7 8.8 8.9 9.6 3.8 1.1 3.7 1 8.6 1.2l4.5.1v35.5c0 34.8 0 35.5 2 35.5s2-.7 2-35.4v-35.3l5.5-1.1c3.1-.6 8.4-2.7 11.9-4.7l6.3-3.5 2 2.3c4 4.4 5.1 7.3 5.6 15.3.3 5.6 1.2 9.4 2.7 12.5 1.3 2.4 2.4 5.7 2.6 7.4.1 1.6.8 5.8 1.4 9.2 1 5 1.6 6.3 3.1 6.3 1 0 2.1.4 2.4 1 .3.5 1.3 6.9 2.1 14.2 2.5 21.9 2.8 18.8.8-6.8-.6-7.7-.5-8.3 1.5-9.3 1.8-1 2.1-2 2.1-8.6 0-4-.3-7.6-.7-7.8-.9-.5-.6-24.6.3-39.3 1.2-18.3-2.6-34.3-8.8-37.2-1.6-.7-2.8-2-2.8-2.8 0-2.5 2.8-7 5.3-8.7 2.3-1.5 3.6-5.4 6.3-19.5.2-1.2 1-2.2 1.8-2.2.7 0 2.1-.9 3.1-2 1.7-1.9 1.7-2.2.2-5.7-1.7-3.9-2.5-7.1-2.6-11-.1-1.5-1.1-2.5-3.6-3.3-4.1-1.3-6.9-5-6.1-7.8 1-3.1 4.5-6.2 7.1-6.2 2.9 0 6.2-4.1 14-17.4 7.9-13.5 17-33 19.6-41.8 1.5-5.4 2.2-11.4 2.6-23 .5-14.5.4-16.3-1.7-22.8-2.2-6.8-2.2-7.4-.9-18.1 1-8.9 1-11.9 0-15.2-.7-2.3-1.6-5.9-2-8-1.2-5.6-2.4-6.3-6-3.8-2.2 1.6-3.8 2-5.8 1.5-5.3-1.3-8.5-3.5-10.2-7.2-.9-2-3.4-5.5-5.4-7.6-2-2.2-3.7-4.6-3.7-5.3 0-.7-.9-1.7-2-2.3-2.4-1.3-2.7-5.5-.5-6.4 2.2-.8 1.9-6-.6-8.2-1.6-1.4-1.9-2.6-1.4-5.1.5-2.9-.1-4.2-5.4-11-7.7-10.2-10.5-12.7-17.1-15.7-7.8-3.5-13.5-4.1-20.9-2.2-7.1 1.8-10 3.5-15.8 9l-4.3 4-.2-85.9-.3-86-.6 88c-.7 92.5-1.4 111.8-4.2 117.2-2.1 4-2.1 4.3.1 4.3 3.2 0 4.2 7.3 4.2 30.8 0 11.9-.4 22.3-.8 22.9-.8 1.3-8.8-10-13-18.3l-2.1-4.2 2.5-.6c2.1-.6 2.5-1.1 2-2.9-.3-1.2-.6-3-.6-4 0-.9-1.3-3.1-3-4.9-1.6-1.7-3-4-3-5.1 0-1.1-1.6-3.5-3.6-5.4-3.4-3.2-3.5-3.5-2.4-6.4 1.1-2.6 1-3.2-.6-5.2-1.1-1.2-2.3-2.5-2.8-2.8-.4-.4-.5-2.8-.2-5.5.5-3.4.2-6.3-.8-9.3-1.3-3.6-1.4-5.9-.6-13 1.7-14.5 1.3-21.8-1.5-28.6-1.4-3.3-2.5-7.2-2.5-8.7 0-1.8-.7-2.9-2.1-3.3l-2.1-.7.7-66.9c.6-60.6.5-66.9-.9-66.9S264 6.6 264 67.6c0 53.6-.3 67.5-1.2 67.2-1.3-.5-2.6-17.5-4.2-53.3-1-23.6-4.7-80.9-5.2-81.4-.2-.2-.7-.2-1 .2-.5.5 2.5 61 4.1 81.2.6 8.1 2.3 52.1 2.2 56.5-.2 6.1 1.3 45.3 1.9 49.4.7 4.2 1.1 4.1-6.2 2-1.8-.5-2.3.3-4.3 7.1-4.2 13.9-4 20.1.6 25.5l2.5 3.1-2.3 5.2c-2.1 4.5-2.4 6.7-2.4 17.2 0 9.8.4 13.1 2.2 18 2.7 7.4 2 8.8-5.9 12.8-6.4 3.2-7.8 5.6-7.8 13.2 0 3-.4 5.7-1 6-1.4.9-1.3 4.8.2 6.3 1 1 .6 1.8-1.7 3.7-2.6 2-2.8 2.6-1.8 4.3.6 1.1.9 2.9.6 4.1-1.1 4.4.6 7.1 7.2 11.3 3.6 2.2 6.5 4.4 6.5 4.9 0 .7-20.7 7.9-23 7.9-.7 0-1.1-55.8-1.3-170.3L222.5-.5l-.3 169.5zm48.3-7.9c0 10.1-1.9 18.9-4.1 18.9-2.2 0-1.9-20.8.3-25.5 2.7-5.7 3.8-3.8 3.8 6.6zm36.8 60.7c.8.9 1.7 3.7 1.9 6.2.2 3.5.8 4.7 2.6 5.5 1.2.5 2.7 2.4 3.2 4.1.6 1.7 2.2 4.2 3.5 5.4 1.7 1.6 2.5 3.4 2.5 5.5 0 2.8-.5 3.4-4.2 5-2.4 1.1-5.9 3.2-7.9 4.7s-4 2.8-4.3 2.8c-.3 0-.6-9.2-.6-20.5s.4-20.5.8-20.5c.5 0 1.6.8 2.5 1.8zm-26.4 9.2c1.7 4.2 3.1 9.2 3.1 11.6 0 2.8 1.4 6.9 4.5 13.2l4.4 9.2-2.2 1.5c-3.1 2.2-4.3 1.9-7-1.8-6.5-8.6-7.1-11-7.2-27.5-.1-8.4.2-14.9.6-14.5.4.5 2.1 4.2 3.8 8.3zm-18.9-2.3c3.1 3.5 3.2 3.9 2.7 10.2-.7 10-8.7 31.5-10.8 29.4-1.5-1.5-3.9-14.4-3.9-21.3.1-10.8 3.8-22 7.5-22 .7 0 2.7 1.7 4.5 3.7z"
     id="path2" />
  <path
     style="fill:#ffffff;stroke-width:1.71429"
     d="m 425.57143,751.92857 c -0.70714,-3.18214 -1.28572,-24.49932 -1.28572,-47.37149 V 662.9713 l -3.85714,-1.03366 c -2.12143,-0.56853 -5.87453,-1.04422 -8.34024,-1.0571 -5.86915,-0.0307 -13.33695,-6.03113 -16.28402,-13.08447 -2.38037,-5.69702 -9.61978,-9.19161 -19.09002,-9.21508 -3.74239,-0.009 -3.85422,-0.50684 -3.75835,-16.72385 0.14211,-24.05348 1.41596,-29.56657 7.62253,-32.99119 3.7211,-2.0532 5.28203,-4.30988 5.66659,-8.19243 0.4548,-4.59166 -0.40395,-5.9525 -6,-9.50799 -3.59192,-2.28216 -7.91828,-5.70163 -9.61412,-7.59883 -1.69584,-1.89719 -15.88307,-8.69337 -31.52716,-15.10264 l -28.44382,-11.65318 -5.78162,6.30885 c -5.3005,5.78386 -6.55589,6.30884 -15.08595,6.30884 -9.38481,0 -15.66285,3.34627 -6.60785,3.52205 4.11516,0.0799 3.56892,0.59582 -3.75597,3.54758 -4.71428,1.89975 -14.51072,6.12605 -21.76987,9.39178 -12.10832,5.44725 -14.09878,5.84543 -24.09901,4.82088 -12.60822,-1.29175 -15.03597,-0.31356 -43.38816,17.48198 -9.49138,5.95735 -27.88959,15.99351 -40.88491,22.30258 -18.63334,9.04625 -25.22246,11.44692 -31.17153,11.35699 -6.62,-0.10011 -7.54445,0.33926 -7.55007,3.58821 -0.009,5.28164 -5.95584,14.33002 -10.33033,15.71844 -2.043889,0.6487 -7.246184,0.65009 -11.560657,0.003 -6.355794,-0.95311 -9.33399,-2.72174 -15.693126,-9.31946 -5.595848,-5.80582 -10.55337,-9.02913 -17.271908,-11.22996 -15.588821,-5.10652 -24.894472,-10.58985 -32.354328,-19.06469 -9.229712,-10.48552 -12.088366,-19.43621 -8.134651,-25.47036 3.926619,-5.99277 11.184587,-5.69129 22.786227,0.94649 7.490615,4.2857 11.878267,5.48794 22.747386,6.23294 l 13.466646,0.92302 9.004831,-8.3758 c 4.952657,-4.60668 10.535608,-11.80772 12.406555,-16.0023 3.852878,-8.63802 4.963525,-9.69705 25.654045,-24.46187 8.25,-5.88721 15,-11.58123 15,-12.65335 0,-1.07211 -4.82142,-3.26818 -10.71428,-4.88014 -5.89286,-1.61194 -14.55438,-4.89867 -19.24782,-7.30382 -8.349649,-4.27877 -9.045524,-4.347 -32.294749,-3.16683 -21.172581,1.07474 -24.118197,0.88308 -27.037898,-1.75922 -4.531363,-4.10115 -4.451167,-18.29371 0.151894,-26.88202 2.835012,-5.28953 3.428572,-9.67215 3.428572,-25.31539 0,-22.89519 1.484801,-26.95963 14.229495,-38.95116 9.809522,-9.22982 10.975539,-9.85987 14.228155,-7.68804 4.8044,3.208 5.863244,8.84434 4.294918,22.86233 -2.777499,24.82583 3.264782,37.75977 19.014593,40.70215 7.73006,1.44413 8.2363,1.28152 13.70116,-4.40117 l 5.67454,-5.90069 20.57142,1.1105 c 41.18628,2.22334 57.13,4.21443 65.21994,8.14481 l 7.74169,3.76121 9.80489,-5.26229 c 7.33447,-3.93641 10.88474,-4.93581 14.09063,-3.96643 7.21897,2.1828 17.90492,1.77024 21.62422,-0.83486 1.94148,-1.35986 8.86313,-3.39156 15.38145,-4.5149 21.39663,-3.68736 19.4179,0.15343 19.99628,-38.81348 l 0.50338,-33.91342 0.39019,33.85714 c 0.35663,30.94467 0.64826,33.85886 3.39019,33.87716 4.25234,0.0285 29.57143,-8.92443 29.57143,-10.45644 0,-0.69936 -3.81655,-4.07317 -8.48124,-7.49737 -4.66467,-3.42419 -8.8069,-7.53989 -9.20496,-9.14601 -1.50398,-6.06833 -1.10011,-12.93996 0.90235,-15.35276 1.14204,-1.37608 2.29099,-7.88952 2.55322,-14.4743 0.60252,-15.12989 2.89492,-19.78097 12.51441,-25.3907 4.24179,-2.47366 7.98888,-5.93348 8.32687,-7.6885 0.33798,-1.75502 2.01372,-4.40469 3.72387,-5.88816 4.22318,-3.6634 11.81628,-25.76066 13.11211,-38.15851 0.99188,-9.48977 0.75276,-10.42869 -3.89026,-15.27495 -2.84138,-2.96577 -6.15942,-4.84663 -7.79529,-4.41883 -1.75109,0.45792 -4.39829,-1.32227 -6.87238,-4.62148 -5.02612,-6.70241 -5.28235,-16.69882 -0.80395,-31.36443 l 3.2276,-10.56958 6.04216,0.9805 6.04215,0.98052 -1.05401,-7.68981 c -0.5797,-4.2294 -1.42015,-27.30003 -1.86766,-51.26808 -0.77676,-41.60196 -0.56145,-44.7549 1.65734,-24.26941 0.53753,4.96273 1.69193,8.58149 2.56534,8.04169 0.93341,-0.57688 1.65848,-33.62388 1.75892,-80.166009 0.094,-43.551499 0.72465,-81.113114 1.40147,-83.470257 0.67681,-2.357143 0.87994,33.305083 0.45139,79.249389 -0.71097,76.222437 -0.53352,83.629377 2.0271,84.611977 1.54348,0.59229 2.80631,2.443 2.80631,4.11268 0,1.6697 1.29101,6.02289 2.86891,9.67375 2.33194,5.39551 2.9216,13.13275 3.15046,41.33849 0.24084,29.68282 0.6936,35.15587 3.13109,37.84927 1.56725,1.73179 2.84954,5.84635 2.84954,9.14347 0,4.17788 1.29889,7.215 4.28571,10.02097 2.35714,2.21443 4.28572,4.73695 4.28572,5.60562 0,0.86868 1.49156,3.6741 3.31458,6.2343 1.82303,2.56022 3.81698,6.65656 4.43099,9.10302 0.89652,3.572 0.39607,4.67672 -2.54093,5.60888 -3.61319,1.14679 -3.5919,1.27807 1.76502,10.87593 6.68491,11.97718 13.24324,20.85797 15.40329,20.85797 0.89487,0 1.75673,-3.27857 1.91522,-7.28572 L 404.29065,336 l 0.67244,6.42857 c 0.36984,3.53572 0.93413,6.42857 1.25398,6.42857 2.71581,0 22.48086,-13.87423 22.9167,-16.08656 0.51152,-2.59641 -6.70831,-15.45259 -12.08868,-21.52608 -1.20338,-1.35839 -3.34509,-5.93119 -4.75938,-10.16179 -3.03802,-9.08774 -6.31553,-10.95775 -7.33374,-4.18435 -0.42192,2.80668 -0.83114,1.11955 -0.98083,-4.04386 -0.30645,-10.57049 -1.52383,-14.28307 -4.68355,-14.28307 -1.86209,0 -1.96625,-0.97176 -0.50534,-4.71429 1.01215,-2.59285 2.56082,-13.49429 3.44152,-24.22539 1.48042,-18.03902 1.93974,-19.78512 6.08777,-23.14286 18.02359,-14.58972 29.95726,-18.23803 45.12159,-13.79438 7.44574,2.18186 11.48584,4.86703 19.24608,12.79156 11.73545,11.9839 16.73428,19.74182 16.74295,25.98418 0.003,2.53721 0.77784,5.08989 1.7207,5.67261 0.94285,0.58272 1.71428,2.897 1.71428,5.14285 0,2.24586 -0.77143,4.56014 -1.71428,5.14286 -2.46091,1.52093 -2.11502,4.79224 0.91474,8.65133 7.68374,9.78703 17.90865,24.05944 17.92438,25.01968 0.0103,0.60476 3.13214,2.3456 6.93828,3.86852 6.20237,2.48169 7.43716,2.50166 11.90272,0.19241 5.83093,-3.01529 5.78533,-3.06636 9.27109,10.38561 2.13091,8.22348 2.36085,13.23555 1.11024,24.20069 -1.21297,10.63528 -1.01098,15.9568 0.87458,23.04122 3.1813,11.95267 3.14184,41.86604 -0.0753,57.05165 -1.54068,7.27253 -7.09201,21.15953 -14.39098,36 -14.35001,29.17685 -25.4844,46.23182 -30.67711,46.98936 -3.86436,0.56374 -10.64983,7.82019 -10.64983,11.38903 0,2.44978 6.52319,8.56495 10.71429,10.0441 1.65,0.58234 3.03386,2.81872 3.07524,4.96975 0.0413,2.15102 1.19433,6.99665 2.56207,10.76808 2.40662,6.63598 2.3495,6.96933 -1.77082,10.33519 -2.97191,2.42774 -4.86088,6.4818 -6.25523,13.42484 -1.09868,5.47074 -3.79059,12.39134 -5.98201,15.3791 -8.44833,11.51834 -8.61616,12.67414 -2.72428,18.7609 9.28092,9.58787 10.58649,18.92682 10.19275,72.91053 -0.29834,40.90337 -0.72405,47.81577 -3.09046,50.18218 -2.51644,2.51644 -3.03487,2.41845 -6.23951,-1.17934 -1.92226,-2.1581 -4.02233,-7.62754 -4.6668,-12.15432 -0.64446,-4.52678 -2.55927,-12.08765 -4.25511,-16.80194 -1.69584,-4.71428 -3.60506,-13.19419 -4.2427,-18.84421 -1.12732,-9.98877 -6.73152,-21.44944 -10.46028,-21.39138 -0.94286,0.0154 -6.34286,2.30642 -12,5.09274 -5.65715,2.78631 -11.82857,5.09513 -13.71429,5.1307 -7.56627,0.14263 -7.63682,0.57562 -8.11467,49.8102 -0.25343,26.10929 -1.02914,44.48342 -1.74247,41.27338 z M 389.59767,355.28571 c 1.22083,-1.51061 0.0334,-5.93631 -4.02423,-15 -3.16581,-7.07142 -5.77922,-14.54873 -5.80759,-16.61621 -0.0708,-5.15849 -8.66251,-27.95521 -10.5359,-27.95521 -2.06285,0 -1.92876,35.43939 0.16166,42.72828 2.78222,9.701 9.83561,18.986 14.4228,18.986 2.22833,0 4.83079,-0.96428 5.78326,-2.14286 z M 358.97515,235.45848 c 2.87482,-8.24671 2.49142,-34.02991 -0.50602,-34.02991 -3.32577,0 -4.5982,4.07263 -5.69886,18.23998 -1.45779,18.76464 2.05324,27.69936 6.20488,15.78993 z"
     id="path252"
     transform="matrix(0.75000449,0,0,0.75000449,0,-0.00183393)" />
</svg>
