<?xml version="1.0" standalone="no"?>
<!DOCTYPE svg PUBLIC "-//W3C//DTD SVG 20010904//EN"
 "http://www.w3.org/TR/2001/REC-SVG-20010904/DTD/svg10.dtd">
<svg version="1.0" xmlns="http://www.w3.org/2000/svg"
 width="415.000000pt" height="612.000000pt" viewBox="0 0 612.000000 612.000000"
 preserveAspectRatio="xMidYMid meet">

<g transform="translate(0.000000,612.000000) scale(0.100000,-0.100000)"
fill="#000000" stroke="none">
<path d="M3212 4430 c-1 -932 -6 -1700 -10 -1706 -4 -6 -38 -16 -77 -23 -38
-7 -92 -17 -119 -21 -27 -5 -52 -13 -55 -18 -22 -33 -84 -40 -154 -16 -43 15
-48 14 -89 -5 -24 -11 -55 -30 -69 -42 l-26 -21 -60 30 c-55 28 -72 31 -264
46 -113 9 -248 16 -299 16 l-93 0 -39 -41 -39 -40 -57 7 c-74 9 -113 46 -137
129 -17 58 -17 67 1 222 4 29 4 63 0 77 -8 31 -44 66 -68 66 -10 0 -54 -35
-97 -77 -98 -96 -103 -113 -100 -302 3 -130 2 -138 -21 -169 -18 -25 -24 -48
-28 -110 -4 -72 -2 -80 21 -107 28 -33 50 -35 187 -17 47 7 113 12 146 12 54
0 69 -4 113 -34 30 -21 74 -39 108 -46 79 -16 123 -32 123 -45 0 -6 -15 -18
-33 -27 -18 -9 -85 -55 -149 -103 -106 -79 -116 -90 -122 -125 -6 -40 -17 -56
-93 -135 -52 -55 -99 -69 -173 -55 -30 6 -61 8 -71 5 -10 -4 -40 10 -75 35
-95 66 -160 73 -198 18 -35 -50 -10 -129 69 -216 53 -59 122 -98 231 -130 78
-24 117 -49 139 -92 21 -40 89 -70 159 -70 53 0 61 3 92 34 28 28 34 42 34 76
l0 43 48 -6 c40 -5 60 0 137 35 200 89 256 119 404 213 84 54 180 111 213 127
60 29 65 29 156 6 40 -10 47 -8 145 40 56 28 135 61 174 74 40 13 73 26 73 29
0 3 -20 5 -45 4 -25 -2 -45 1 -45 6 0 5 36 9 79 9 l79 0 42 47 41 47 37 -13
c20 -8 109 -45 198 -82 88 -38 165 -69 172 -69 6 0 23 -15 37 -34 14 -19 46
-44 70 -55 37 -18 44 -25 43 -48 -1 -16 0 -34 3 -41 2 -9 -13 -20 -41 -32 -45
-17 -45 -18 -51 -76 -4 -33 -7 -114 -8 -180 l-1 -122 68 -12 c71 -13 102 -32
102 -61 0 -26 57 -88 89 -96 38 -11 37 -10 86 -12 l45 -1 0 -355 c0 -348 0
-355 20 -355 20 0 20 7 20 354 l0 353 55 11 c31 6 84 27 119 47 l63 35 20 -23
c40 -44 51 -73 56 -153 3 -56 12 -94 27 -125 13 -24 24 -57 26 -74 1 -16 8
-58 14 -92 10 -50 16 -63 31 -63 10 0 21 -4 24 -10 3 -5 13 -69 21 -142 25
-219 28 -188 8 68 -6 77 -5 83 15 93 18 10 21 20 21 86 0 40 -3 76 -7 78 -9 5
-6 246 3 393 12 183 -26 343 -88 372 -16 7 -28 20 -28 28 0 25 28 70 53 87 23
15 36 54 63 195 2 12 10 22 18 22 7 0 21 9 31 20 17 19 17 22 2 57 -17 39 -25
71 -26 110 -1 15 -11 25 -36 33 -41 13 -69 50 -61 78 10 31 45 62 71 62 29 0
62 41 140 174 79 135 170 330 196 418 15 54 22 114 26 230 5 145 4 163 -17
228 -22 68 -22 74 -9 181 10 89 10 119 0 152 -7 23 -16 59 -20 80 -12 56 -24
63 -60 38 -22 -16 -38 -20 -58 -15 -53 13 -85 35 -102 72 -9 20 -34 55 -54 76
-20 22 -37 46 -37 53 0 7 -9 17 -20 23 -24 13 -27 55 -5 64 22 8 19 60 -6 82
-16 14 -19 26 -14 51 5 29 -1 42 -54 110 -77 102 -105 127 -171 157 -78 35
-135 41 -209 22 -71 -18 -100 -35 -158 -90 l-43 -40 -2 859 -3 860 -6 -880
c-7 -925 -14 -1118 -42 -1172 -21 -40 -21 -43 1 -43 32 0 42 -73 42 -308 0
-119 -4 -223 -8 -229 -8 -13 -88 100 -130 183 l-21 42 25 6 c21 6 25 11 20 29
-3 12 -6 30 -6 40 0 9 -13 31 -30 49 -16 17 -30 40 -30 51 0 11 -16 35 -36 54
-34 32 -35 35 -24 64 11 26 10 32 -6 52 -11 12 -23 25 -28 28 -4 4 -5 28 -2
55 5 34 2 63 -8 93 -13 36 -14 59 -6 130 17 145 13 218 -15 286 -14 33 -25 72
-25 87 0 18 -7 29 -21 33 l-21 7 7 669 c6 606 5 669 -9 669 -14 0 -16 -66 -16
-676 0 -536 -3 -675 -12 -672 -13 5 -26 175 -42 533 -10 236 -47 809 -52 814
-2 2 -7 2 -10 -2 -5 -5 25 -610 41 -812 6 -81 23 -521 22 -565 -2 -61 13 -453
19 -494 7 -42 11 -41 -62 -20 -18 5 -23 -3 -43 -71 -42 -139 -40 -201 6 -255
l25 -31 -23 -52 c-21 -45 -24 -67 -24 -172 0 -98 4 -131 22 -180 27 -74 20
-88 -59 -128 -64 -32 -78 -56 -78 -132 0 -30 -4 -57 -10 -60 -14 -9 -13 -48 2
-63 10 -10 6 -18 -17 -37 -26 -20 -28 -26 -18 -43 6 -11 9 -29 6 -41 -11 -44
6 -71 72 -113 36 -22 65 -44 65 -49 0 -7 -207 -79 -230 -79 -7 0 -11 558 -13
1703 l-2 1702 -3 -1695z m483 79 c0 -101 -19 -189 -41 -189 -22 0 -19 208 3
255 27 57 38 38 38 -66z m368 -607 c8 -9 17 -37 19 -62 2 -35 8 -47 26 -55 12
-5 27 -24 32 -41 6 -17 22 -42 35 -54 17 -16 25 -34 25 -55 0 -28 -5 -34 -42
-50 -24 -11 -59 -32 -79 -47 -20 -15 -40 -28 -43 -28 -3 0 -6 92 -6 205 0 113
4 205 8 205 5 0 16 -8 25 -18z m-264 -92 c17 -42 31 -92 31 -116 0 -28 14 -69
45 -132 l44 -92 -22 -15 c-31 -22 -43 -19 -70 18 -65 86 -71 110 -72 275 -1
84 2 149 6 145 4 -5 21 -42 38 -83z m-189 23 c31 -35 32 -39 27 -102 -7 -100
-87 -315 -108 -294 -15 15 -39 144 -39 213 1 108 38 220 75 220 7 0 27 -17 45
-37z"/>
</g>
</svg>
